<svg width="259" height="90" viewBox="0 0 259 90" fill="none" xmlns="http://www.w3.org/2000/svg">
<g clip-path="url(#clip0_4_16)">
<path d="M82.2938 53.883C72.1551 59.364 71.1861 49.383 71.1861 49.383C62.806 48.411 56.5792 39.024 56.5792 39.024C45.2562 44.892 51.5727 61.434 56.4446 67.788C62.7163 75.924 58.1225 89.1 58.1225 89.1C58.1225 89.1 32.5694 87.03 19.5237 70.587C9.72595 58.248 12.2561 46.575 15.0465 38.88C18.4022 29.628 22.9332 24.543 29.5547 19.143C39.3883 11.106 57.5482 10.098 57.5482 10.098C57.6649 9.41399 58.2212 8.61299 58.9389 7.79399C56.7497 7.85699 54.076 8.03699 51.0344 8.43299C48.9618 8.83799 46.6649 9.06299 44.341 9.74699C41.9634 10.26 39.5588 11.088 37.0914 12.033C34.633 12.951 32.2105 14.265 29.8149 15.624C27.5449 17.208 25.1314 18.675 23.2203 20.763C21.031 22.554 19.434 24.876 17.801 27.108C16.0873 29.295 15.2529 31.968 13.9698 34.263C13.0188 36.711 12.4894 39.24 11.7716 41.553C11.1256 43.884 11.1346 46.215 10.8116 48.312C10.5335 50.418 10.3271 52.344 10.4796 54.072C10.5335 55.791 10.5693 57.303 10.6142 58.536C10.686 61.011 10.7308 62.424 10.7308 62.424L10.3899 62.451C10.3899 62.451 10.0938 61.065 9.71698 58.572C9.53753 57.33 9.30425 55.8 9.062 54.054C8.68516 52.308 8.67619 50.31 8.83769 48.114C8.9633 46.539 8.98125 44.82 9.13378 43.074L5.04242 42.984L9.23247 37.827L4.82709 37.197L11.1167 32.355L6.49593 30.879L13.0008 27.306L8.07505 25.83L16.5718 23.094L10.7039 21.42L20.2504 18.783L15.0106 16.371L24.6648 15.111L19.9454 12.375L31.726 11.133C31.7798 11.106 31.8426 11.079 31.8965 11.061L26.4503 8.58599L38.832 7.53299L33.1526 4.58999L56.5703 6.45299C57.8353 6.50699 58.9389 6.60599 59.9528 6.72299C62.9585 3.82499 67.6869 0.899994 67.6869 0.899994C66.7089 1.87199 66.3231 7.16399 66.3231 7.16399C67.2921 5.39999 70.4145 3.63599 70.4145 3.63599C68.6649 7.73999 70.4145 16.533 70.4145 16.533C75.4838 21.627 81.1364 39.213 81.1364 39.213L83.2897 42.336C86.0083 46.269 85.0034 52.416 82.2938 53.883Z" fill="#FAF3E3"/>
<path d="M113.798 0V90" stroke="#FAF3E3" stroke-width="0.5"/>
<path d="M139.535 21.6V3.75841H145.715C146.904 3.75841 147.967 3.91801 148.905 4.23721C149.86 4.53961 150.655 5.09401 151.292 5.90041C151.945 6.69001 152.272 7.68121 152.272 8.87401C152.272 10.134 151.912 11.184 151.191 12.024C150.471 12.8472 149.475 13.4016 148.202 13.6872L152.95 21.6H149.131L145.011 14.04H142.7V21.6H139.535ZM142.7 11.4444H145.288C147.833 11.4444 149.106 10.5792 149.106 8.84881C149.106 7.97521 148.763 7.35361 148.076 6.98401C147.389 6.61441 146.552 6.42961 145.564 6.42961H142.7V11.4444ZM154.48 12.6288C154.48 9.80641 155.368 7.54681 157.143 5.85001C158.935 4.15321 161.221 3.30481 164.001 3.30481C166.815 3.30481 169.118 4.15321 170.91 5.85001C172.702 7.54681 173.598 9.80641 173.598 12.6288C173.598 15.4008 172.694 17.6688 170.885 19.4328C169.093 21.18 166.798 22.0536 164.001 22.0536C161.238 22.0536 158.96 21.18 157.168 19.4328C155.376 17.6688 154.48 15.4008 154.48 12.6288ZM157.922 12.6288C157.922 14.544 158.491 16.1232 159.63 17.3664C160.769 18.5928 162.234 19.206 164.026 19.206C165.835 19.206 167.309 18.5928 168.448 17.3664C169.587 16.1232 170.156 14.544 170.156 12.6288C170.156 10.764 169.587 9.21001 168.448 7.96681C167.326 6.72361 165.852 6.10201 164.026 6.10201C162.218 6.10201 160.744 6.72361 159.605 7.96681C158.483 9.21001 157.922 10.764 157.922 12.6288ZM180.238 21.6V13.8636L173.556 3.75841H177.425L181.896 11.268L186.418 3.75841H190.086L183.404 13.8636V21.6H180.238ZM187.913 21.6L195.651 3.75841H198.389L206.051 21.6H202.434L200.776 17.5176H193.063L191.455 21.6H187.913ZM194.143 14.796H199.67L196.932 7.53841L194.143 14.796ZM207.811 21.6V3.75841H210.977V18.7776H218.539V21.6H207.811ZM139.535 51.6V33.7584H142.7V51.6H139.535ZM146.625 51.6V33.7584H150.82L159.086 47.1144H159.136V33.7584H162.301V51.6H158.282L149.841 37.8156H149.79V51.6H146.625ZM169.82 51.6V36.5304H164.368V33.7584H178.437V36.5304H172.985V51.6H169.82ZM180.506 51.6V33.7584H192.288V36.5304H183.671V41.0664H191.836V43.7376H183.671V48.7776H192.74V51.6H180.506ZM195.839 51.6V33.7584H202.019C203.208 33.7584 204.272 33.918 205.21 34.2372C206.165 34.5396 206.96 35.094 207.597 35.9004C208.25 36.69 208.576 37.6812 208.576 38.874C208.576 40.134 208.216 41.184 207.496 42.024C206.776 42.8472 205.779 43.4016 204.506 43.6872L209.255 51.6H205.436L201.316 44.04H199.005V51.6H195.839ZM199.005 41.4444H201.592C204.138 41.4444 205.411 40.5792 205.411 38.8488C205.411 37.9752 205.068 37.3536 204.381 36.984C203.694 36.6144 202.857 36.4296 201.869 36.4296H199.005V41.4444ZM211.639 51.6V33.7584H215.834L224.1 47.1144H224.15V33.7584H227.315V51.6H223.296L214.854 37.8156H214.804V51.6H211.639ZM231.241 51.6V33.7584H243.023V36.5304H234.406V41.0664H242.571V43.7376H234.406V48.7776H243.475V51.6H231.241ZM250.167 51.6V36.5304H244.715V33.7584H258.784V36.5304H253.332V51.6H250.167ZM139.535 81.6V63.7584H146.468C147.976 63.7584 149.257 64.128 150.312 64.8672C151.384 65.6064 151.92 66.732 151.92 68.244C151.92 69.2184 151.644 70.0416 151.091 70.7136C150.538 71.3856 149.784 71.8644 148.83 72.15V72.2004C149.985 72.3516 150.915 72.7968 151.618 73.536C152.322 74.2752 152.674 75.2328 152.674 76.4088C152.674 77.3328 152.481 78.1476 152.096 78.8532C151.727 79.542 151.216 80.0796 150.563 80.466C149.91 80.8524 149.198 81.138 148.428 81.3228C147.657 81.5076 146.828 81.6 145.941 81.6H139.535ZM142.7 66.3792V71.016H145.514C146.569 71.016 147.373 70.806 147.925 70.386C148.478 69.966 148.754 69.3696 148.754 68.5968C148.754 67.8072 148.47 67.2444 147.9 66.9084C147.331 66.5556 146.443 66.3792 145.237 66.3792H142.7ZM142.7 73.7376V78.9288H145.539C148.185 78.9288 149.508 78.0384 149.508 76.2576C149.508 75.3504 149.198 74.7036 148.579 74.3172C147.959 73.9308 146.988 73.7376 145.664 73.7376H142.7ZM153.64 81.6L161.377 63.7584H164.116L171.778 81.6H168.16L166.502 77.5176H158.79L157.182 81.6H153.64ZM159.87 74.796H165.397L162.659 67.5384L159.87 74.796ZM173.538 81.6V63.7584H177.734L185.999 77.1144H186.049V63.7584H189.215V81.6H185.195L176.754 67.8156H176.704V81.6H173.538ZM193.14 81.6V63.7584H196.306V71.4696H196.381L203.817 63.7584H208.088L199.773 71.9988L208.641 81.6H204.194L196.381 72.654H196.306V81.6H193.14ZM210.461 81.6V63.7584H213.626V81.6H210.461ZM217.552 81.6V63.7584H221.747L230.012 77.1144H230.063V63.7584H233.228V81.6H229.208L220.767 67.8156H220.717V81.6H217.552ZM252.729 71.4192V80.6676C250.803 81.5916 248.568 82.0536 246.022 82.0536C243.158 82.0536 240.821 81.18 239.013 79.4328C237.204 77.6856 236.299 75.4176 236.299 72.6288C236.299 69.8232 237.204 67.572 239.013 65.8752C240.838 64.1616 243.149 63.3048 245.946 63.3048C247.32 63.3048 248.601 63.5064 249.79 63.9096C250.996 64.3128 251.967 64.8588 252.704 65.5476L250.519 67.9164C250.05 67.3956 249.405 66.9672 248.584 66.6312C247.764 66.2784 246.893 66.102 245.972 66.102C244.129 66.102 242.639 66.7236 241.5 67.9668C240.361 69.21 239.791 70.764 239.791 72.6288C239.791 74.5608 240.361 76.14 241.5 77.3664C242.655 78.5928 244.196 79.206 246.122 79.206C247.479 79.206 248.66 78.996 249.665 78.576V74.04H245.921V71.4192H252.729Z" fill="#FAF3E3"/>
</g>
<defs>
<clipPath id="clip0_4_16">
<rect width="259" height="90" fill="white"/>
</clipPath>
</defs>
</svg>
